<svg width="101" height="100" fill="none" xmlns="http://www.w3.org/2000/svg"><g clip-path="url(#clip0)"><path d="M75.5 93.75h-6.25A6.25 6.25 0 0063 87.5v-8.203H38V87.5a6.25 6.25 0 00-6.25 6.25H25.5a6.25 6.25 0 00-6.25 6.25h62.5a6.25 6.25 0 00-6.25-6.25z" fill="#C2E5FF"/><path d="M44.25 81.25l5.027 10.047c.504 1.007 1.942 1.007 2.446 0L56.75 81.25l-1.611-1.953h-9.082L44.25 81.25z" fill="#FFB850"/><path d="M52.453 89.838l-.73 1.459c-.504 1.007-1.942 1.007-2.446 0L44.25 81.25l1.807-1.953h3.906l-1.807 1.953 4.297 8.588z" fill="#F5A30F"/><path d="M37.324 75l-3.543 3.973c-.786.881-.16 2.277 1.02 2.277H66.2c1.181 0 1.807-1.396 1.02-2.277L63.678 75l-2.19-1.953H39.524L37.324 75z" fill="#FF5468"/><path d="M43.361 75l-5.575 6.25H34.8c-1.18 0-1.806-1.397-1.02-2.278L37.325 75h6.036z" fill="#E13F55"/><path d="M75.835 74.01l-10.521-5.26V43.963l10.695 10.513a6.035 6.035 0 011.805 4.305v14.006a1.367 1.367 0 01-1.98 1.224zM25.166 74.01l10.521-5.26V43.963L24.992 54.476a6.036 6.036 0 00-1.805 4.305v14.006a1.367 1.367 0 001.979 1.224z" fill="#FF5468"/><path d="M69.252 44.32c0 6.227-.789 12.414-2.338 18.322l-1.6 6.108-1.76 1.204-1.009 3.516-23.95.04-1.44-3.36-1.467-1.4-1.6-6.108a71.471 71.471 0 01-1.75-9.04 73.502 73.502 0 01-.588-9.282c0-10.184 2.107-20.087 6.012-28.773 1.99-4.423 4.445-6.579 7.326-10.245h10.825c2.882 3.666 5.337 5.822 7.327 10.245a65.66 65.66 0 012.545 6.6c2.268 6.963 3.467 14.488 3.467 22.172z" fill="#EAF6FF"/><path d="M63.24 15.546H37.763c1.99-4.422 4.445-8.532 7.326-12.198l.664-.845c2.1-2.674 5.248-3.206 7.766-1.594a7.029 7.029 0 011.73 1.594l.664.845c2.881 3.666 5.336 7.776 7.327 12.198z" fill="#FF5468"/><path d="M37.762 15.546c-3.905 8.687-6.012 18.59-6.012 28.774 0 3.112.197 6.217.587 9.281a71.468 71.468 0 001.751 9.04l1.6 6.11L37.326 75h6.036l-1.638-6.25-1.6-6.11a71.468 71.468 0 01-1.75-9.04 73.538 73.538 0 01-.588-9.281c0-10.184 2.107-20.087 6.013-28.774h-6.037z" fill="#D8ECFE"/><path d="M53.519.909V.91a7.053 7.053 0 00-1.73 1.592l-.665.845c-2.88 3.666-5.336 7.776-7.326 12.198h-6.035c1.99-4.422 4.445-8.532 7.326-12.198l.664-.845c2.1-2.674 5.248-3.206 7.766-1.594z" fill="#E13F55"/><path d="M65.314 68.75L63.678 75H37.325l-1.638-6.25h29.627z" fill="#88B4F5"/><path d="M43.362 75h-6.037l-1.638-6.25h6.037L43.362 75z" fill="#68A4FF"/><path d="M50.5 56.25c6.904 0 12.5-5.597 12.5-12.5 0-6.904-5.596-12.5-12.5-12.5-6.903 0-12.499 5.596-12.499 12.5 0 6.903 5.596 12.5 12.5 12.5z" fill="#FF5468"/><path d="M52.513 56.086c-.654.107-1.328.163-2.012.163-6.893 0-12.499-5.607-12.499-12.499 0-6.893 5.606-12.5 12.5-12.5.683 0 1.357.055 2.011.162-5.94.964-10.487 6.129-10.487 12.338 0 6.207 4.547 11.372 10.487 12.336z" fill="#E13F55"/><path d="M50.5 49.991a6.242 6.242 0 100-12.484 6.242 6.242 0 000 12.484z" fill="#88B4F5"/><path d="M52.512 49.66a6.248 6.248 0 01-8.254-5.91 6.249 6.249 0 018.254-5.912 6.254 6.254 0 00-4.23 5.912c0 2.736 1.772 5.07 4.23 5.91z" fill="#68A4FF"/></g><defs><clipPath id="clip0"><path fill="#fff" transform="translate(.5)" d="M0 0h100v100H0z"/></clipPath></defs></svg>
