<svg width="101" height="100" fill="none" xmlns="http://www.w3.org/2000/svg"><ellipse cx="50.056" cy="51.212" rx="23.126" ry="23.051" fill="#fff"/><path d="M91.885 36.424l-5.009-4.457-10.204 3.909-1.388 5.71-5.337 24.13 17.328 7.525 2.15-2.767a45.58 45.58 0 004.631-20.085c0-4.869-.763-9.56-2.171-13.965z" fill="#FE7D43"/><path d="M74.043 62.789l-6.081 2.928-15.635 10.977 6.968 15.497 4.975 1.228v.002c11.117-4.12 20.063-12.53 25.217-23.075L74.043 62.79z" fill="#EE6161"/><path d="M58.316 77.137l-3.318-2.318-19.824-3L25.65 87.07l4.385 5.504v.002a46.021 46.021 0 0018.177 3.715 46.026 46.026 0 0016.06-2.87v-.002l-5.955-16.283z" fill="#C2A1D5"/><path d="M36.087 71.428L25.068 54.174l-19.226 5.93v8.302c4.64 10.83 13.34 19.52 24.19 24.17v-.001L37 76.695l-.913-5.267z" fill="#8AC9FE"/><path d="M10.3 28.511l-5.221 5.766h-.002A45.653 45.653 0 002.158 50.39a45.642 45.642 0 003.683 18.016h.002l16.038-6.695 2.097-4.801 1.26-23.618-14.939-4.781z" fill="#75CDD5"/><path d="M37.435 9.055h-9.276C17.567 14.169 9.239 23.207 5.077 34.277h.002l16.24 6.189 10.62-5.358L45.98 22.516 37.435 9.055z" fill="#6CF5C2"/><path d="M75.487 41.587l-.85-3.77-10.484 2.649-.564 4.823c.537 1.602.826 3.318.826 5.1 0 2.467-.555 4.802-1.546 6.891l.227 3.848 6.85 3.633 4.096-1.972a28.382 28.382 0 002.833-12.4c0-3.07-.488-6.028-1.388-8.802z" fill="#FD6930"/><path d="M62.87 57.28a16.232 16.232 0 01-8.826 8.182l-1.495 2.804 3.117 7.956 2.648.915a28.712 28.712 0 0015.728-14.348L62.87 57.28z" fill="#E94444"/><path d="M54.045 65.462a16.183 16.183 0 01-5.835 1.08c-2.203 0-4.3-.436-6.215-1.233l-3.27.354-3.89 7.904L37 76.694a28.635 28.635 0 0011.21 2.27c3.556 0 6.962-.646 10.105-1.827l-4.27-11.675z" fill="#A274BF"/><path d="M33.379 56.91l-2.559-1.844-8.35 2.884-.588 3.761a28.706 28.706 0 0015.117 14.984l4.996-11.385a16.226 16.226 0 01-8.616-8.4z" fill="#26A6FE"/><path d="M70.287 10.099A45.963 45.963 0 0048.21 4.487a45.984 45.984 0 00-20.05 4.568l7.467 15.656 7.419 3.317 23.343 3.939L73.181 17.6l-2.894-7.501z" fill="#FEE97D"/><path d="M99.094 32.878a1.243 1.243 0 01-.809 1.592l-6.283 1.955-11.9 3.7c-2.66-8.24-8.436-15.09-15.948-19.164L70.201 10.1l3.2-5.749a1.248 1.248 0 011.715-.473c11.123 6.426 19.727 16.704 23.978 29z" fill="#FEC165"/><path d="M32.006 50.39c0-1.928.337-3.775.96-5.488l-.143-6.733h-6.95l-4.552 2.297a28.445 28.445 0 00-1.776 9.923c0 4.023.834 7.85 2.338 11.322l11.498-4.802a16.032 16.032 0 01-1.375-6.52z" fill="#2ABCC8"/><path d="M41.444 26.585l-5.818-1.874c-6.58 3.205-11.743 8.851-14.307 15.755l11.645 4.436a16.219 16.219 0 018.014-8.97v-.002l2.668-2.994-2.203-6.351z" fill="#00F2A6"/><path d="M61.854 25.253h-.003a28.61 28.61 0 00-13.641-3.437c-4.514 0-8.784 1.04-12.583 2.895l5.352 11.22a16.196 16.196 0 017.231-1.694c2.746 0 5.33.68 7.596 1.882l4.078.2 3.99-5.303-2.02-5.763z" fill="#FEDF30"/><path d="M80.101 40.126l-4.7 1.461-11.812 3.702c-1.32-3.96-4.205-7.274-7.85-9.205l6.028-10.832 2.387-4.29C71.666 25.035 77.44 31.883 80.1 40.125z" fill="#FDB441"/></svg>
