<svg width="101" height="100" fill="none" xmlns="http://www.w3.org/2000/svg"><path d="M56.158 5.658a3.315 3.315 0 00-2.343-.97h-.38c-.879 0-1.722.349-2.344.97l-4.442 4.443a3.314 3.314 0 00-.954 2.014L44.406 25a3.315 3.315 0 00.955 2.674l8.524 8.524 4.427-4.948-7.226-7.129.976-10.058 2.344-2.344a3.314 3.314 0 104.688 4.687l1.562-1.562a3.315 3.315 0 000-4.688l-4.498-4.498zM94.842 44.481l-4.498-4.497a3.313 3.313 0 00-4.688 0l-1.562 1.562a3.315 3.315 0 004.687 4.688l-2.343 2.343-10.059.977-6.222-6.32-5.534 3.841 8.203 8.203a3.314 3.314 0 002.674.956l12.885-1.29a3.316 3.316 0 002.014-.954l4.442-4.443a3.313 3.313 0 00.971-2.343v-.38c0-.878-.349-1.721-.97-2.343z" fill="#FA9F0C"/><path d="M91.125 34.375l-6.084 6.084A33.141 33.141 0 0158.313 50L50.5 42.187a33.134 33.134 0 019.541-26.729l6.084-6.083 20.647 20.646 4.353 4.354z" fill="#FFB531"/><path d="M65.02 17.11l-1.664 1.664c-.23.229-.458.465-.68.702l2.284 2.134c.198-.212.401-.422.605-.626l1.665-1.665-2.21-2.21zM55.19 35.768l3.105.339a25.217 25.217 0 014.881-12.368l-2.5-1.873a28.337 28.337 0 00-5.486 13.902z" fill="#FFC361"/><path d="M27.055 65.622l23.434-23.434L58.3 50 34.866 73.433l-7.811-7.81z" fill="#FA9F0C"/><path d="M36.816 78.125a6.61 6.61 0 01-1.941 4.688l-1.563 1.562-7.124-7.125-10.063-10.063 1.563-1.562a6.631 6.631 0 019.375 0l7.812 7.813a.436.436 0 01.041.044 6.603 6.603 0 011.9 4.643z" fill="#FFB531"/><path d="M36.438 87.5l-7.813 7.813L5.187 71.874 13 64.062 30.008 81.07l6.43 6.43z" fill="#92563A"/><path d="M38.268 76.83l-4.956-4.955 18.75-18.75 4.956 4.956a6.25 6.25 0 010 8.838l-9.911 9.912a6.25 6.25 0 01-8.839 0z" fill="#FEB784"/><path d="M42.23 43.292l8.728 8.728a3.773 3.773 0 010 5.335L37.542 70.77a3.773 3.773 0 01-5.334 0l-8.728-8.728a3.773 3.773 0 010-5.334l13.415-13.416a3.773 3.773 0 015.335 0z" fill="#FEC9A3"/><path d="M36.886 49.542l2.21-2.21L50.03 58.269l-2.21 2.21-10.935-10.936zM32.198 54.228l2.21-2.209 10.935 10.936-2.209 2.21-10.936-10.937zM27.51 58.915l2.21-2.21 10.936 10.936-2.21 2.21-10.935-10.936z" fill="#FEB784"/><path d="M48.938 50l-9.376 9.375.704.703a6.872 6.872 0 008.672.86 6.872 6.872 0 00.859 8.671l2.266 2.266 4.955-4.956a6.25 6.25 0 000-8.838L48.938 50z" fill="#FFD5B8"/><path d="M91.125 95.313h-31.25L52.062 87.5l15.626-15.625 23.437 23.438z" fill="#4D5E78"/><path d="M44.238 79.685l15.623-15.623 7.811 7.812L52.05 87.496l-7.812-7.811z" fill="#E0E0DE"/><path d="M50.5 78.125h3.125v3.125H50.5v-3.125z" fill="#4D5E78"/><path d="M36.437 87.5l-7.813 7.813-6.496-6.496 7.879-7.747 6.43 6.43z" fill="#804A32"/><path d="M91.126 34.375l-6.084 6.084A33.14 33.14 0 0158.313 50l-7.812-7.813a33.26 33.26 0 01-.145-2.183c12.059-.824 24.497-3.828 36.416-9.982l4.354 4.353zM36.816 78.125a6.61 6.61 0 01-1.941 4.688l-1.563 1.562-7.124-7.125a105.216 105.216 0 008.728-3.767 6.603 6.603 0 011.9 4.642z" fill="#FCAC1F"/><path d="M91.125 95.313h-31.25l-5.14-5.141h31.25l5.14 5.14z" fill="#485870"/><path d="M25.5 10.938a9.883 9.883 0 006.25-6.25 9.883 9.883 0 006.25 6.25 9.883 9.883 0 00-6.25 6.25 9.883 9.883 0 00-6.25-6.25z" fill="#FFB531"/></svg>
